<svg xmlns="http://www.w3.org/2000/svg"
     version="1.1"
     xmlns:xlink="http://www.w3.org/1999/xlink"
     xmlns:svgjs="http://svgjs.com/svgjs"
     width="600"
     height="100"
     overflow="visible">
	<g class="window-logo"
	   opacity="1">
		<defs id="SvgjsDefs1002"/>
		<g id="SvgjsG1008"
		   transform="scale(1.2311688311688311)"
		   opacity="1">
			<g id="SvgjsG1009"
			   class="nRg-NNccH"
			   transform="translate(-0.5489440487034539, -0.7289070203271064) scale(0.7853312462251827)"
			   light-content="false"
			   non-strokable="false"
			   fill="#ffffff">
				<path d="M47 1.732l37.301 21.536a6 6 0 0 1 3 5.196v43.072a6 6 0 0 1-3 5.196L47 98.268a6 6 0 0 1-6 0L3.699 76.732a6 6 0 0 1-3-5.196V28.464a6 6 0 0 1 3-5.196L41 1.732a6 6 0 0 1 6 0z"
				      fill="#184081"/>
			</g>
			<g id="SvgjsG1010"
			   class="igDxAFNsn5"
			   transform="translate(10.203534589751214, 13.10209021361179) scale(0.466703155356171)"
			   light-content="true"
			   non-strokable="false"
			   fill="#404040">
				<path d="M47.227 71.365V32.013a7.497 7.497 0 0 0-7.496-7.496H20.992v41.227c25.347 0 26.235 5.621 26.235 5.621m33.731-5.621c-.028 0 0-41.227 0-41.227h-18.74a7.494 7.494 0 0 0-7.496 7.496v39.353c0-.001 1.299-5.622 26.236-5.622"
						fill="#ffffff"/>
				<path d="M88.504 30.139v39.353c-35.195 0-33.965 11.243-33.965 11.243h-7.144s1.329-11.176-33.899-11.24V30.139c-4.141 0-7.496 5.23-7.496 9.37v29.983a7.495 7.495 0 0 0 7.496 7.496c20.079 0 27.494 4.041 30.018 6.189a5.544 5.544 0 0 0 3.598 1.307h7.635a5.5 5.5 0 0 0 3.451-1.201c9.297-7.462 30.307-6.295 30.307-6.295a7.497 7.497 0 0 0 7.496-7.496V39.509c-.001-4.14-3.357-9.37-7.497-9.37"
				fill="#ffffff"/>
			</g>
			<g id="SvgjsG1011"
			   class="text"
			   transform="translate(275.41936246791704, 53.49667210355611) scale(1)"
			   light-content="false"
			   fill="#184081">
				<path d="M-165.1 0.26C-164.62 0.26 -164.37 -0.03 -164.37 -0.6C-164.37 -1.06 -164.42 -1.37 -164.52 -1.54C-164.62 -1.71 -164.83 -1.81 -165.14 -1.84C-165.49 -1.87 -165.96 -1.91 -166.56 -1.97C-167.73 -2.06 -168.45 -2.16 -168.72 -2.27C-169 -2.39 -169.13 -2.67 -169.13 -3.13L-169.13 -26.11C-169.13 -26.37 -169.12 -26.56 -169.11 -26.69C-169.1 -26.82 -169.01 -26.95 -168.85 -27.1C-168.7 -27.24 -168.47 -27.31 -168.19 -27.31L-161.71 -27.31C-161.57 -27.31 -161.45 -27.3 -161.35 -27.29L-161.05 -27.25C-160.95 -27.23 -160.86 -27.2 -160.77 -27.14C-160.69 -27.08 -160.61 -27.03 -160.54 -26.99C-160.46 -26.95 -160.39 -26.86 -160.3 -26.73C-160.21 -26.6 -160.13 -26.49 -160.04 -26.39C-159.96 -26.29 -159.85 -26.12 -159.72 -25.87C-159.59 -25.63 -159.48 -25.42 -159.38 -25.23C-159.28 -25.04 -159.13 -24.77 -158.93 -24.42C-158.73 -24.06 -158.54 -23.74 -158.37 -23.45C-158.06 -22.88 -157.73 -22.59 -157.38 -22.59C-157.16 -22.59 -156.96 -22.69 -156.78 -22.89C-156.61 -23.09 -156.53 -23.32 -156.53 -23.58C-156.53 -23.61 -156.88 -25.48 -157.6 -29.2C-157.71 -29.88 -158.01 -30.22 -158.5 -30.22L-184.09 -30.22C-184.61 -30.22 -184.91 -30 -184.99 -29.54C-185.85 -25.62 -186.28 -23.61 -186.28 -23.49L-186.28 -23.45C-186.28 -23.14 -186.19 -22.87 -186 -22.66C-185.82 -22.44 -185.58 -22.34 -185.29 -22.34C-185.01 -22.34 -184.77 -22.45 -184.57 -22.68C-184.48 -22.79 -183.84 -24.04 -182.64 -26.41C-182.46 -26.75 -182.28 -26.99 -182.08 -27.12C-181.88 -27.25 -181.51 -27.31 -180.96 -27.31L-174.4 -27.31C-174.06 -27.31 -173.8 -27.22 -173.61 -27.05C-173.43 -26.88 -173.32 -26.72 -173.29 -26.58C-173.26 -26.44 -173.25 -26.22 -173.25 -25.94L-173.25 -3.69C-173.25 -3.17 -173.34 -2.79 -173.53 -2.53C-173.71 -2.27 -174.1 -2.12 -174.7 -2.06C-174.99 -2.03 -175.38 -2 -175.86 -1.97C-176.75 -1.91 -177.31 -1.83 -177.56 -1.71C-177.8 -1.6 -177.92 -1.31 -177.92 -0.86C-177.92 -0.11 -177.63 0.26 -177.06 0.26C-177.03 0.26 -176.91 0.25 -176.68 0.24C-176.45 0.22 -176.15 0.2 -175.78 0.17C-175.4 0.14 -174.98 0.11 -174.51 0.09C-174.04 0.06 -173.5 0.04 -172.88 0.02C-172.27 0.01 -171.66 0 -171.06 0C-170.12 0 -169.17 0.02 -168.21 0.06C-167.25 0.11 -166.5 0.14 -165.96 0.17Z M-137.32 -22.51C-138.09 -22.51 -138.48 -22.19 -138.48 -21.56L-138.48 -20.19C-138.48 -19.76 -138.58 -19.44 -138.78 -19.21C-138.98 -18.98 -139.18 -18.84 -139.38 -18.8C-139.58 -18.76 -139.84 -18.74 -140.15 -18.74L-146.88 -18.74C-147.45 -18.74 -147.74 -19.06 -147.74 -19.72L-147.74 -26.32C-147.74 -26.87 -147.66 -27.28 -147.5 -27.57C-147.35 -27.85 -146.98 -28 -146.41 -28L-138.13 -28C-137.56 -28 -137.15 -27.87 -136.89 -27.61C-136.72 -27.41 -135.99 -26.18 -134.7 -23.92C-134.33 -23.41 -133.92 -23.15 -133.46 -23.15C-132.86 -23.15 -132.56 -23.37 -132.56 -23.79C-132.56 -23.85 -132.64 -24.22 -132.8 -24.89C-132.95 -25.56 -133.14 -26.38 -133.35 -27.35C-133.57 -28.32 -133.73 -29.08 -133.85 -29.62C-133.99 -30.11 -134.3 -30.35 -134.79 -30.35L-154.98 -30.35C-155.56 -30.35 -155.84 -30.02 -155.84 -29.37C-155.84 -29.11 -155.8 -28.91 -155.71 -28.77C-155.63 -28.62 -155.48 -28.52 -155.28 -28.45C-155.08 -28.38 -154.89 -28.33 -154.7 -28.3C-154.52 -28.27 -154.24 -28.24 -153.87 -28.21C-153.5 -28.18 -153.18 -28.15 -152.93 -28.12C-152.41 -28.04 -152.08 -27.95 -151.94 -27.87C-151.8 -27.78 -151.73 -27.58 -151.73 -27.27L-151.73 -4.37C-151.73 -3.46 -152.05 -2.89 -152.71 -2.66C-153.05 -2.54 -153.48 -2.39 -154 -2.19C-154.91 -1.84 -155.48 -1.6 -155.71 -1.46C-155.94 -1.31 -156.06 -1.09 -156.06 -0.77C-156.06 -0.57 -155.96 -0.31 -155.78 0.02C-155.59 0.35 -155.33 0.51 -154.98 0.51C-154.93 0.51 -154.33 0.43 -153.2 0.26C-152.08 0.09 -150.85 0 -149.54 0L-134.45 0C-133.99 0 -133.67 -0.06 -133.48 -0.17C-133.3 -0.29 -133.18 -0.51 -133.12 -0.86C-132.23 -4.77 -131.79 -6.86 -131.79 -7.12L-131.79 -7.16C-131.79 -7.47 -131.87 -7.72 -132.03 -7.89C-132.18 -8.06 -132.36 -8.15 -132.56 -8.15C-132.68 -8.15 -132.82 -8.1 -132.99 -8.02C-133.22 -7.87 -133.72 -7.11 -134.49 -5.72C-135.26 -4.34 -135.78 -3.54 -136.03 -3.34C-136.41 -3.06 -137.31 -2.83 -138.73 -2.66C-140.16 -2.49 -141.36 -2.4 -142.34 -2.4C-143.79 -2.4 -145.17 -2.5 -146.45 -2.7C-146.85 -2.76 -147.16 -2.88 -147.37 -3.07C-147.59 -3.25 -147.72 -3.44 -147.76 -3.62C-147.8 -3.81 -147.82 -4.06 -147.82 -4.37L-147.82 -14.45C-147.82 -14.85 -147.77 -15.18 -147.65 -15.43C-147.54 -15.69 -147.36 -15.87 -147.12 -15.97C-146.87 -16.07 -146.65 -16.13 -146.45 -16.16C-146.25 -16.19 -145.99 -16.21 -145.68 -16.21L-139.64 -16.21C-138.86 -16.21 -138.48 -15.88 -138.48 -15.22L-138.48 -12.86C-138.48 -12.23 -138.09 -11.92 -137.32 -11.92C-136.49 -11.92 -136.08 -12.33 -136.08 -13.16L-136.08 -21.26C-136.08 -22.09 -136.49 -22.51 -137.32 -22.51Z M-99.46 0.26C-99.44 0.26 -99.32 0.25 -99.12 0.24C-98.92 0.22 -98.64 0.2 -98.28 0.17C-97.93 0.14 -97.53 0.11 -97.11 0.09C-96.68 0.06 -96.18 0.04 -95.61 0.02C-95.03 0.01 -94.46 0 -93.89 0C-93 0 -92.11 0.02 -91.21 0.06C-90.31 0.11 -89.59 0.14 -89.05 0.17L-88.23 0.26C-87.97 0.26 -87.76 0.17 -87.59 0C-87.42 -0.17 -87.33 -0.4 -87.33 -0.69C-87.33 -0.86 -87.35 -1.01 -87.37 -1.14C-87.4 -1.26 -87.47 -1.37 -87.57 -1.46C-87.67 -1.54 -87.75 -1.61 -87.82 -1.67C-87.89 -1.73 -88.03 -1.77 -88.23 -1.8C-88.43 -1.83 -88.6 -1.85 -88.75 -1.86C-88.89 -1.88 -89.11 -1.89 -89.41 -1.91C-89.71 -1.92 -89.96 -1.94 -90.16 -1.97C-90.65 -2.03 -91 -2.17 -91.23 -2.4C-91.46 -2.63 -91.59 -2.85 -91.62 -3.07C-91.65 -3.28 -91.66 -3.63 -91.66 -4.12L-91.66 -4.42C-91.66 -4.96 -91.67 -5.77 -91.68 -6.84C-91.7 -7.91 -91.73 -10.12 -91.77 -13.46C-91.81 -16.81 -91.86 -20.91 -91.92 -25.77C-91.92 -26.45 -91.56 -26.88 -90.85 -27.05C-90.45 -27.17 -90.03 -27.27 -89.6 -27.37C-89.17 -27.47 -88.85 -27.55 -88.62 -27.59C-88.39 -27.63 -88.17 -27.7 -87.95 -27.78C-87.74 -27.87 -87.6 -27.98 -87.52 -28.12C-87.45 -28.27 -87.42 -28.45 -87.42 -28.68C-87.42 -28.97 -87.45 -29.19 -87.52 -29.35C-87.59 -29.5 -87.67 -29.59 -87.74 -29.6C-87.81 -29.62 -87.92 -29.62 -88.06 -29.62L-94.45 -29.62C-94.82 -29.62 -95.08 -29.5 -95.22 -29.24L-107.14 -6.99C-107.28 -6.67 -107.48 -6.52 -107.74 -6.52C-108.08 -6.52 -108.34 -6.69 -108.51 -7.03L-113.61 -15.18L-121.93 -29.07C-122.16 -29.44 -122.53 -29.62 -123.04 -29.62L-129.35 -29.62C-129.49 -29.62 -129.6 -29.62 -129.69 -29.6C-129.77 -29.59 -129.87 -29.5 -129.97 -29.35C-130.07 -29.19 -130.12 -28.97 -130.12 -28.68C-130.12 -28.22 -129.83 -27.95 -129.26 -27.87C-128.66 -27.87 -128.1 -27.75 -127.59 -27.5C-127.07 -27.26 -126.7 -27.03 -126.47 -26.82C-126.24 -26.6 -125.96 -26.29 -125.62 -25.87C-125.27 -25.46 -125.09 -25.24 -125.06 -25.21C-124.72 -24.81 -124.54 -24.44 -124.54 -24.09C-124.54 -20.01 -124.92 -13.46 -125.66 -4.46C-125.66 -4.34 -125.67 -4.15 -125.7 -3.88C-125.73 -3.61 -125.75 -3.42 -125.77 -3.32C-125.78 -3.22 -125.82 -3.08 -125.87 -2.89C-125.93 -2.71 -126 -2.58 -126.09 -2.51C-126.17 -2.44 -126.3 -2.37 -126.47 -2.29C-126.64 -2.22 -126.84 -2.17 -127.07 -2.14C-127.3 -2.12 -127.59 -2.09 -127.93 -2.06C-128.27 -2.03 -128.52 -2 -128.68 -1.97C-128.84 -1.94 -129.03 -1.91 -129.26 -1.86C-129.49 -1.82 -129.65 -1.78 -129.75 -1.74C-129.85 -1.69 -129.95 -1.62 -130.05 -1.52C-130.15 -1.42 -130.22 -1.31 -130.27 -1.18C-130.31 -1.05 -130.33 -0.89 -130.33 -0.69C-130.33 -0.06 -130.06 0.26 -129.52 0.26C-129.49 0.26 -129.37 0.25 -129.17 0.24C-128.97 0.22 -128.71 0.2 -128.38 0.17C-128.05 0.14 -127.69 0.11 -127.29 0.09C-126.89 0.06 -126.41 0.04 -125.85 0.02C-125.29 0.01 -124.76 0 -124.24 0C-123.73 0 -123.19 0.01 -122.64 0.02C-122.08 0.04 -121.6 0.06 -121.2 0.09C-120.8 0.11 -120.44 0.14 -120.11 0.17C-119.78 0.2 -119.51 0.22 -119.31 0.24C-119.11 0.25 -119 0.26 -118.97 0.26C-118.46 0.26 -118.2 -0.07 -118.2 -0.73C-118.2 -1.27 -118.43 -1.62 -118.91 -1.78C-119.38 -1.94 -119.95 -2.01 -120.62 -2.01C-121.29 -2.01 -121.77 -2.12 -122.06 -2.32C-122.23 -2.46 -122.34 -2.94 -122.4 -3.77C-122.51 -6.52 -122.57 -9.13 -122.57 -11.62C-122.57 -14.62 -122.49 -17.66 -122.31 -20.75C-122.31 -20.89 -122.26 -20.96 -122.14 -20.96C-122.09 -20.96 -122.04 -20.95 -122.01 -20.92C-121.87 -20.84 -121.21 -19.85 -120.04 -17.96C-118.87 -16.08 -117.36 -13.5 -115.52 -10.25C-113.68 -6.99 -112.04 -3.89 -110.61 -0.94C-110.1 0.11 -109.58 0.64 -109.07 0.64C-108.7 0.64 -108.37 0.47 -108.08 0.13C-107.88 -0.13 -107.11 -1.51 -105.77 -4.03C-104.42 -6.55 -102.84 -9.45 -101.03 -12.75C-99.21 -16.06 -97.75 -18.61 -96.63 -20.41C-96.43 -20.75 -96.23 -20.92 -96.03 -20.92C-95.86 -20.92 -95.76 -20.84 -95.73 -20.66C-95.65 -20.41 -95.61 -18.06 -95.61 -13.63L-95.61 -4.12C-95.61 -3.66 -95.67 -3.28 -95.8 -2.98C-95.93 -2.68 -96.13 -2.46 -96.4 -2.32C-96.67 -2.17 -96.94 -2.07 -97.21 -2.01C-97.48 -1.96 -97.85 -1.91 -98.31 -1.89C-98.99 -1.83 -99.49 -1.74 -99.81 -1.61C-100.12 -1.48 -100.28 -1.2 -100.28 -0.77C-100.28 -0.09 -100.01 0.26 -99.46 0.26Z M-66.45 -21.86C-66.45 -19.75 -67.45 -18.03 -69.45 -16.72C-71.45 -15.41 -74.07 -14.75 -77.3 -14.75C-78.04 -14.75 -78.49 -14.78 -78.65 -14.83C-78.81 -14.89 -78.89 -15.03 -78.89 -15.26L-78.89 -27.78C-78.89 -28.07 -78.73 -28.25 -78.41 -28.34C-78.1 -28.42 -77.37 -28.47 -76.23 -28.47C-73.23 -28.47 -70.85 -27.84 -69.09 -26.58C-67.33 -25.32 -66.45 -23.75 -66.45 -21.86ZM-84.29 -29.97L-85.4 -29.97C-86.03 -29.97 -86.34 -29.65 -86.34 -29.02C-86.34 -28.68 -86.28 -28.42 -86.15 -28.23C-86.02 -28.05 -85.9 -27.94 -85.79 -27.91C-85.67 -27.88 -85.52 -27.87 -85.32 -27.87L-83.73 -27.87C-83.44 -27.87 -83.22 -27.8 -83.07 -27.67C-82.91 -27.55 -82.82 -27.42 -82.81 -27.29C-82.79 -27.16 -82.79 -26.98 -82.79 -26.75L-82.79 -3.26C-82.79 -2.89 -82.87 -2.61 -83.02 -2.42C-83.18 -2.24 -83.5 -2.12 -83.99 -2.06C-84.19 -2.03 -84.4 -2.01 -84.63 -1.99C-84.86 -1.98 -85.04 -1.96 -85.17 -1.95C-85.29 -1.94 -85.44 -1.92 -85.59 -1.91C-85.75 -1.89 -85.87 -1.88 -85.94 -1.86C-86.01 -1.85 -86.09 -1.83 -86.19 -1.8C-86.29 -1.77 -86.37 -1.74 -86.41 -1.69L-86.56 -1.54C-86.62 -1.49 -86.65 -1.42 -86.67 -1.35C-86.68 -1.28 -86.69 -1.19 -86.71 -1.09C-86.72 -0.99 -86.73 -0.89 -86.73 -0.77C-86.73 -0.09 -86.43 0.26 -85.83 0.26L-84.97 0.17C-84.4 0.14 -83.63 0.11 -82.66 0.06C-81.69 0.02 -80.71 0 -79.74 0C-78.8 0 -77.84 0.02 -76.87 0.06C-75.9 0.11 -75.13 0.14 -74.55 0.17L-73.7 0.26C-73.13 0.26 -72.84 -0.09 -72.84 -0.77L-72.84 -0.81C-72.84 -1.36 -73.04 -1.69 -73.44 -1.8C-73.61 -1.86 -75 -1.94 -77.6 -2.06C-78.14 -2.09 -78.51 -2.22 -78.69 -2.47C-78.88 -2.71 -78.97 -3.09 -78.97 -3.6L-78.97 -12.52C-78.97 -12.98 -78.79 -13.2 -78.41 -13.2L-77.08 -13.2C-72.63 -13.2 -69.34 -13.8 -67.22 -15.01C-65.94 -15.69 -64.88 -16.64 -64.05 -17.86C-63.22 -19.07 -62.79 -20.46 -62.77 -22.04L-62.77 -22.08C-62.77 -24.34 -63.61 -26.24 -65.29 -27.78C-67.27 -29.55 -70.12 -30.44 -73.87 -30.44C-74.84 -30.44 -76.46 -30.36 -78.71 -30.2C-80.97 -30.05 -82.83 -29.97 -84.29 -29.97Z M-55.61 -29.62L-55.95 -29.62C-56.83 -29.62 -57.66 -29.64 -58.41 -29.67C-59.17 -29.7 -59.75 -29.72 -60.15 -29.73C-60.55 -29.75 -60.81 -29.75 -60.92 -29.75C-61.49 -29.75 -61.78 -29.4 -61.78 -28.68C-61.78 -28.02 -61.41 -27.67 -60.66 -27.61L-60.02 -27.61L-59.49 -27.61C-59.33 -27.61 -59.19 -27.6 -59.06 -27.59C-58.93 -27.57 -58.82 -27.56 -58.74 -27.55C-58.65 -27.53 -58.57 -27.5 -58.5 -27.46C-58.43 -27.42 -58.37 -27.35 -58.33 -27.27C-58.28 -27.18 -58.26 -27.09 -58.24 -26.99C-58.23 -26.89 -58.22 -26.75 -58.22 -26.58L-58.22 -3.52L-58.22 -3.39C-58.22 -2.62 -58.55 -2.14 -59.21 -1.97C-59.29 -1.94 -59.42 -1.91 -59.59 -1.89C-60.48 -1.71 -61.04 -1.56 -61.29 -1.44C-61.53 -1.31 -61.65 -1.06 -61.65 -0.69C-61.65 -0.23 -61.41 0 -60.92 0L-58.61 0C-56.78 0 -54.92 0.01 -53.03 0.02C-51.15 0.04 -49.49 0.06 -48.06 0.09C-46.63 0.11 -45.34 0.14 -44.2 0.17C-43.06 0.2 -42.14 0.22 -41.46 0.24C-40.77 0.25 -40.39 0.26 -40.3 0.26C-39.99 0.26 -39.74 0.21 -39.55 0.11C-39.36 0.01 -39.25 -0.1 -39.21 -0.21C-39.16 -0.33 -39.13 -0.49 -39.1 -0.69C-38.53 -4.6 -38.24 -6.67 -38.24 -6.9C-38.24 -7.16 -38.34 -7.37 -38.54 -7.52C-38.74 -7.68 -38.93 -7.78 -39.1 -7.82C-39.27 -7.87 -39.43 -7.89 -39.57 -7.89C-39.83 -7.89 -40.04 -7.77 -40.21 -7.55C-40.3 -7.46 -40.59 -6.87 -41.09 -5.79C-41.59 -4.7 -41.91 -4.04 -42.06 -3.82C-42.57 -3.02 -43.37 -2.62 -44.46 -2.62L-44.59 -2.62L-52.99 -2.62C-53.76 -2.62 -54.15 -3.09 -54.15 -4.03L-54.15 -26.28C-54.15 -26.45 -54.14 -26.6 -54.13 -26.71C-54.11 -26.82 -54.08 -26.93 -54.04 -27.03C-54 -27.13 -53.95 -27.21 -53.89 -27.27C-53.83 -27.32 -53.75 -27.37 -53.63 -27.42C-53.52 -27.46 -53.4 -27.49 -53.29 -27.5C-53.18 -27.52 -53.01 -27.52 -52.8 -27.52L-52.22 -27.52C-52.05 -27.52 -51.8 -27.53 -51.47 -27.55C-51.14 -27.56 -50.83 -27.57 -50.55 -27.57C-49.89 -27.57 -49.56 -27.91 -49.56 -28.6C-49.56 -29 -49.6 -29.29 -49.69 -29.47C-49.77 -29.66 -49.97 -29.75 -50.29 -29.75C-50.37 -29.75 -50.65 -29.74 -51.1 -29.71C-51.56 -29.68 -52.19 -29.66 -52.99 -29.65C-53.79 -29.63 -54.66 -29.62 -55.61 -29.62Z M-31.55 0C-30.7 0 -29.9 0.02 -29.17 0.06C-28.45 0.11 -27.87 0.15 -27.46 0.19C-27.05 0.24 -26.8 0.26 -26.71 0.26C-26.08 0.26 -25.77 -0.06 -25.77 -0.69C-25.77 -1.34 -26.08 -1.7 -26.71 -1.76C-26.82 -1.79 -27.01 -1.8 -27.27 -1.8C-28.1 -1.89 -28.67 -2.01 -29 -2.17C-29.33 -2.32 -29.5 -2.66 -29.5 -3.17C-29.5 -3.66 -29.1 -4.89 -28.32 -6.88C-27.53 -8.87 -26.64 -10.79 -25.64 -12.65C-25.44 -12.99 -25.11 -13.16 -24.65 -13.16L-14.32 -13.16C-13.92 -13.16 -13.66 -13.02 -13.55 -12.73C-12.75 -10.93 -12 -8.94 -11.3 -6.75C-10.6 -4.57 -10.25 -3.26 -10.25 -2.83C-10.25 -2.37 -10.55 -2.09 -11.15 -1.97C-11.32 -1.94 -11.53 -1.91 -11.79 -1.89C-12.05 -1.86 -12.23 -1.84 -12.33 -1.82C-12.43 -1.81 -12.56 -1.79 -12.73 -1.76C-12.9 -1.73 -13.02 -1.71 -13.08 -1.69C-13.13 -1.68 -13.22 -1.64 -13.33 -1.59C-13.45 -1.53 -13.51 -1.47 -13.53 -1.41C-13.54 -1.36 -13.57 -1.28 -13.61 -1.18C-13.65 -1.08 -13.68 -0.97 -13.7 -0.86C-13.71 -0.74 -13.72 -0.61 -13.72 -0.47C-13.72 0.01 -13.42 0.26 -12.82 0.26C-12.73 0.26 -12.47 0.24 -12.03 0.19C-11.58 0.15 -10.98 0.11 -10.2 0.06C-9.43 0.02 -8.57 0 -7.63 0C-6.86 0 -6.07 0.02 -5.25 0.06C-4.44 0.11 -3.79 0.14 -3.3 0.17L-2.57 0.26C-1.97 0.26 -1.67 -0.06 -1.67 -0.69C-1.67 -0.86 -1.7 -1.06 -1.76 -1.29C-1.81 -1.57 -2.04 -1.74 -2.42 -1.8C-2.81 -1.86 -3.27 -1.96 -3.79 -2.1C-4.32 -2.24 -4.74 -2.54 -5.06 -3C-5.12 -3.09 -6.75 -7 -9.95 -14.75L-16.25 -29.32C-16.71 -30.44 -17.32 -31 -18.09 -31C-18.49 -31 -18.85 -30.88 -19.16 -30.65C-19.28 -30.57 -19.36 -30.5 -19.42 -30.44C-19.56 -30.24 -21.75 -26.14 -25.98 -18.13C-28.38 -13.36 -30.61 -8.67 -32.67 -4.07C-32.98 -3.3 -33.31 -2.78 -33.65 -2.51C-34 -2.24 -34.51 -2.06 -35.2 -1.97C-35.26 -1.97 -35.39 -1.96 -35.61 -1.93C-35.82 -1.9 -35.95 -1.88 -35.99 -1.86C-36.03 -1.85 -36.13 -1.83 -36.29 -1.8C-36.45 -1.77 -36.54 -1.75 -36.57 -1.74C-36.6 -1.72 -36.66 -1.69 -36.76 -1.65C-36.86 -1.61 -36.93 -1.56 -36.96 -1.5L-37.06 -1.29C-37.11 -1.2 -37.13 -1.11 -37.15 -1.01C-37.16 -0.91 -37.17 -0.79 -37.17 -0.64C-37.17 -0.04 -36.87 0.26 -36.27 0.26C-36.24 0.26 -36.14 0.25 -35.97 0.24C-35.8 0.22 -35.57 0.2 -35.28 0.17C-35 0.14 -34.67 0.11 -34.3 0.09C-33.93 0.06 -33.5 0.04 -33.01 0.02C-32.53 0.01 -32.04 0 -31.55 0ZM-15.22 -15.43L-24.22 -15.43C-24.39 -15.43 -24.48 -15.51 -24.48 -15.65C-24.48 -15.79 -22.98 -18.69 -19.98 -24.35C-19.69 -24.87 -19.42 -25.12 -19.16 -25.12C-18.96 -25.12 -18.81 -25.02 -18.69 -24.82C-18.38 -24.28 -17.66 -22.69 -16.53 -20.06C-15.4 -17.43 -14.83 -16.01 -14.83 -15.78C-14.83 -15.55 -14.96 -15.43 -15.22 -15.43Z M20.15 0.26C20.64 0.26 20.88 -0.03 20.88 -0.6C20.88 -1.06 20.83 -1.37 20.73 -1.54C20.63 -1.71 20.42 -1.81 20.11 -1.84C19.76 -1.87 19.29 -1.91 18.69 -1.97C17.52 -2.06 16.8 -2.16 16.53 -2.27C16.26 -2.39 16.12 -2.67 16.12 -3.13L16.12 -26.11C16.12 -26.37 16.13 -26.56 16.14 -26.69C16.16 -26.82 16.24 -26.95 16.4 -27.1C16.56 -27.24 16.78 -27.31 17.06 -27.31L23.54 -27.31C23.68 -27.31 23.8 -27.3 23.9 -27.29L24.2 -27.25C24.3 -27.23 24.39 -27.2 24.48 -27.14C24.57 -27.08 24.64 -27.03 24.72 -26.99C24.79 -26.95 24.87 -26.86 24.95 -26.73C25.04 -26.6 25.12 -26.49 25.21 -26.39C25.29 -26.29 25.4 -26.12 25.53 -25.87C25.66 -25.63 25.77 -25.42 25.87 -25.23C25.97 -25.04 26.12 -24.77 26.32 -24.42C26.52 -24.06 26.71 -23.74 26.88 -23.45C27.2 -22.88 27.52 -22.59 27.87 -22.59C28.1 -22.59 28.3 -22.69 28.47 -22.89C28.64 -23.09 28.72 -23.32 28.72 -23.58C28.72 -23.61 28.37 -25.48 27.65 -29.2C27.54 -29.88 27.24 -30.22 26.75 -30.22L1.16 -30.22C0.64 -30.22 0.34 -30 0.26 -29.54C-0.6 -25.62 -1.03 -23.61 -1.03 -23.49L-1.03 -23.45C-1.03 -23.14 -0.94 -22.87 -0.75 -22.66C-0.56 -22.44 -0.33 -22.34 -0.04 -22.34C0.24 -22.34 0.49 -22.45 0.69 -22.68C0.77 -22.79 1.41 -24.04 2.62 -26.41C2.79 -26.75 2.97 -26.99 3.17 -27.12C3.37 -27.25 3.74 -27.31 4.29 -27.31L10.85 -27.31C11.19 -27.31 11.45 -27.22 11.64 -27.05C11.83 -26.88 11.93 -26.72 11.96 -26.58C11.99 -26.44 12 -26.22 12 -25.94L12 -3.69C12 -3.17 11.91 -2.79 11.73 -2.53C11.54 -2.27 11.15 -2.12 10.55 -2.06C10.26 -2.03 9.87 -2 9.39 -1.97C8.5 -1.91 7.94 -1.83 7.7 -1.71C7.45 -1.6 7.33 -1.31 7.33 -0.86C7.33 -0.11 7.62 0.26 8.19 0.26C8.22 0.26 8.35 0.25 8.57 0.24C8.8 0.22 9.1 0.2 9.47 0.17C9.85 0.14 10.27 0.11 10.74 0.09C11.21 0.06 11.75 0.04 12.37 0.02C12.98 0.01 13.59 0 14.19 0C15.13 0 16.08 0.02 17.04 0.06C18 0.11 18.75 0.14 19.29 0.17Z M47.93 -22.51C47.16 -22.51 46.77 -22.19 46.77 -21.56L46.77 -20.19C46.77 -19.76 46.67 -19.44 46.47 -19.21C46.27 -18.98 46.07 -18.84 45.87 -18.8C45.67 -18.76 45.42 -18.74 45.1 -18.74L38.37 -18.74C37.8 -18.74 37.51 -19.06 37.51 -19.72L37.51 -26.32C37.51 -26.87 37.59 -27.28 37.75 -27.57C37.91 -27.85 38.27 -28 38.84 -28L47.12 -28C47.69 -28 48.1 -27.87 48.36 -27.61C48.53 -27.41 49.26 -26.18 50.55 -23.92C50.92 -23.41 51.33 -23.15 51.79 -23.15C52.39 -23.15 52.69 -23.37 52.69 -23.79C52.69 -23.85 52.61 -24.22 52.45 -24.89C52.3 -25.56 52.11 -26.38 51.9 -27.35C51.68 -28.32 51.52 -29.08 51.4 -29.62C51.26 -30.11 50.95 -30.35 50.46 -30.35L30.27 -30.35C29.7 -30.35 29.41 -30.02 29.41 -29.37C29.41 -29.11 29.45 -28.91 29.54 -28.77C29.62 -28.62 29.77 -28.52 29.97 -28.45C30.17 -28.38 30.36 -28.33 30.55 -28.3C30.73 -28.27 31.01 -28.24 31.38 -28.21C31.75 -28.18 32.07 -28.15 32.33 -28.12C32.84 -28.04 33.17 -27.95 33.31 -27.87C33.45 -27.78 33.53 -27.58 33.53 -27.27L33.53 -4.37C33.53 -3.46 33.2 -2.89 32.54 -2.66C32.2 -2.54 31.77 -2.39 31.25 -2.19C30.34 -1.84 29.77 -1.6 29.54 -1.46C29.31 -1.31 29.2 -1.09 29.2 -0.77C29.2 -0.57 29.29 -0.31 29.47 0.02C29.66 0.35 29.92 0.51 30.27 0.51C30.33 0.51 30.92 0.43 32.05 0.26C33.18 0.09 34.4 0 35.71 0L50.8 0C51.26 0 51.58 -0.06 51.77 -0.17C51.95 -0.29 52.07 -0.51 52.13 -0.86C53.02 -4.77 53.46 -6.86 53.46 -7.12L53.46 -7.16C53.46 -7.47 53.38 -7.72 53.23 -7.89C53.07 -8.06 52.89 -8.15 52.69 -8.15C52.58 -8.15 52.43 -8.1 52.26 -8.02C52.03 -7.87 51.53 -7.11 50.76 -5.72C49.99 -4.34 49.47 -3.54 49.22 -3.34C48.85 -3.06 47.95 -2.83 46.52 -2.66C45.09 -2.49 43.89 -2.4 42.92 -2.4C41.46 -2.4 40.09 -2.5 38.8 -2.7C38.4 -2.76 38.09 -2.88 37.88 -3.07C37.66 -3.25 37.53 -3.44 37.49 -3.62C37.45 -3.81 37.43 -4.06 37.43 -4.37L37.43 -14.45C37.43 -14.85 37.48 -15.18 37.6 -15.43C37.71 -15.69 37.89 -15.87 38.13 -15.97C38.38 -16.07 38.6 -16.13 38.8 -16.16C39 -16.19 39.26 -16.21 39.57 -16.21L45.62 -16.21C46.39 -16.21 46.77 -15.88 46.77 -15.22L46.77 -12.86C46.77 -12.23 47.16 -11.92 47.93 -11.92C48.76 -11.92 49.17 -12.33 49.17 -13.16L49.17 -21.26C49.17 -22.09 48.76 -22.51 47.93 -22.51Z M69.07 -30.1L68.02 -30.1C67.69 -30.1 67.44 -30.1 67.27 -30.12C67.1 -30.13 67 -30.14 66.97 -30.14C66.45 -30.14 66.19 -29.88 66.19 -29.37C66.19 -28.62 66.45 -28.25 66.97 -28.25L67.18 -28.25C67.95 -28.2 68.49 -28.09 68.79 -27.93C69.09 -27.77 69.24 -27.42 69.24 -26.88L69.24 -2.87C69.24 -2.64 69.19 -2.47 69.09 -2.34C68.99 -2.21 68.89 -2.12 68.79 -2.08C68.69 -2.04 68.54 -2 68.34 -1.97C68.2 -1.94 68 -1.91 67.74 -1.89C66.91 -1.8 66.39 -1.71 66.17 -1.63C65.96 -1.54 65.85 -1.33 65.85 -0.99C65.85 -0.67 65.9 -0.43 66 -0.26C66.1 -0.09 66.2 0.01 66.3 0.04C66.4 0.07 66.54 0.09 66.71 0.09L66.8 0.09C67.48 0.09 68.37 0.07 69.45 0.04C70.54 0.01 71.33 0 71.81 0C72.5 0 73.5 0.04 74.81 0.13C76.13 0.21 77.13 0.26 77.81 0.26C79.87 0.26 81.63 -0.07 83.09 -0.73C84.57 -1.39 85.87 -2.45 86.99 -3.92C88.1 -5.39 88.66 -7.1 88.66 -9.05C88.66 -10.96 88.07 -12.63 86.9 -14.06C85.73 -15.49 84.29 -16.36 82.57 -16.68C82.46 -16.73 82.4 -16.78 82.4 -16.81L82.53 -16.93C83.76 -17.71 84.76 -18.69 85.53 -19.89C86.3 -21.09 86.69 -22.37 86.69 -23.71C86.69 -25.77 85.79 -27.45 83.99 -28.77C82.3 -29.94 79.87 -30.53 76.7 -30.53C75.84 -30.53 74.58 -30.45 72.9 -30.31C71.23 -30.17 69.95 -30.1 69.07 -30.1ZM82.79 -22.77C82.79 -21.96 82.57 -21.14 82.14 -20.28C81.14 -18.42 79.1 -17.49 76.01 -17.49L75.46 -17.49L73.48 -17.49C73.17 -17.49 73.01 -17.68 73.01 -18.05L73.01 -27.44L73.01 -27.52C73.01 -27.78 73.08 -27.97 73.23 -28.08C73.65 -28.42 74.68 -28.6 76.31 -28.6C77.51 -28.6 78.56 -28.4 79.46 -28C80.36 -27.6 81.04 -27.08 81.5 -26.45C81.96 -25.82 82.29 -25.2 82.49 -24.59C82.69 -23.97 82.79 -23.37 82.79 -22.77ZM76.4 -1.8C75.88 -1.8 75.2 -1.86 74.34 -1.97C73.94 -2.03 73.64 -2.15 73.44 -2.34C73.24 -2.52 73.12 -2.7 73.08 -2.87C73.03 -3.04 73.01 -3.29 73.01 -3.6L73.01 -14.92C73.01 -15.38 73.23 -15.61 73.65 -15.61L75.88 -15.61C77.4 -15.61 78.63 -15.51 79.57 -15.31C81.34 -14.93 82.65 -14.13 83.49 -12.88C84.34 -11.64 84.76 -10.29 84.76 -8.83C84.76 -6.63 83.94 -4.91 82.31 -3.67C80.69 -2.42 78.71 -1.8 76.4 -1.8Z M123.22 -14.79C123.22 -19.36 121.64 -23.31 118.5 -26.62C115.36 -29.94 111.47 -31.6 106.84 -31.6C102.41 -31.6 98.6 -30.02 95.41 -26.86C92.23 -23.7 90.63 -19.91 90.63 -15.48C90.69 -10.85 92.39 -6.92 95.73 -3.69C97.31 -2.17 99.12 -1 101.18 -0.17C103.24 0.66 105.34 1.07 107.48 1.07C111.83 1.07 115.53 -0.44 118.61 -3.45C121.68 -6.47 123.22 -10.25 123.22 -14.79ZM94.83 -16.85C94.83 -18.94 95.16 -20.8 95.82 -22.44C96.48 -24.09 97.36 -25.39 98.46 -26.35C99.56 -27.3 100.76 -28.03 102.08 -28.53C103.39 -29.03 104.75 -29.28 106.15 -29.28C109.18 -29.28 111.81 -28.3 114.04 -26.32C115.7 -24.87 116.92 -23.03 117.71 -20.81C118.49 -18.6 118.88 -16.33 118.88 -14.02C118.88 -11.82 118.52 -9.87 117.79 -8.19C117.06 -6.5 116.11 -5.19 114.94 -4.27C113.77 -3.34 112.54 -2.64 111.25 -2.19C109.97 -1.73 108.65 -1.5 107.31 -1.5C105.31 -1.5 103.49 -1.94 101.86 -2.83C100.24 -3.72 98.92 -4.89 97.92 -6.35C96.92 -7.8 96.16 -9.43 95.63 -11.23C95.1 -13.03 94.83 -14.91 94.83 -16.85Z M157.34 -14.79C157.34 -19.36 155.77 -23.31 152.63 -26.62C149.48 -29.94 145.59 -31.6 140.96 -31.6C136.53 -31.6 132.73 -30.02 129.54 -26.86C126.35 -23.7 124.76 -19.91 124.76 -15.48C124.82 -10.85 126.52 -6.92 129.86 -3.69C131.43 -2.17 133.25 -1 135.31 -0.17C137.36 0.66 139.46 1.07 141.61 1.07C145.95 1.07 149.66 -0.44 152.73 -3.45C155.81 -6.47 157.34 -10.25 157.34 -14.79ZM128.96 -16.85C128.96 -18.94 129.29 -20.8 129.95 -22.44C130.6 -24.09 131.48 -25.39 132.58 -26.35C133.68 -27.3 134.89 -28.03 136.21 -28.53C137.52 -29.03 138.88 -29.28 140.28 -29.28C143.31 -29.28 145.94 -28.3 148.17 -26.32C149.82 -24.87 151.05 -23.03 151.83 -20.81C152.62 -18.6 153.01 -16.33 153.01 -14.02C153.01 -11.82 152.65 -9.87 151.92 -8.19C151.19 -6.5 150.24 -5.19 149.07 -4.27C147.9 -3.34 146.67 -2.64 145.38 -2.19C144.09 -1.73 142.78 -1.5 141.44 -1.5C139.44 -1.5 137.62 -1.94 135.99 -2.83C134.36 -3.72 133.05 -4.89 132.05 -6.35C131.05 -7.8 130.28 -9.43 129.75 -11.23C129.22 -13.03 128.96 -14.91 128.96 -16.85Z M170.42 0.26C170.99 0.26 171.27 -0.16 171.27 -0.99C171.27 -1.53 170.96 -1.84 170.33 -1.93C170.13 -1.96 169.87 -1.98 169.54 -1.99C169.21 -2.01 168.98 -2.02 168.85 -2.04C168.72 -2.05 168.55 -2.07 168.32 -2.08C168.09 -2.09 167.93 -2.12 167.85 -2.14C167.76 -2.17 167.65 -2.21 167.5 -2.25C167.36 -2.29 167.27 -2.34 167.22 -2.4C167.18 -2.46 167.12 -2.52 167.05 -2.59C166.98 -2.67 166.93 -2.76 166.9 -2.87C166.87 -2.99 166.85 -3.11 166.84 -3.24C166.82 -3.37 166.82 -3.52 166.82 -3.69L166.82 -12.95C166.82 -13.55 167.02 -13.85 167.42 -13.85L167.46 -13.85C167.66 -13.85 167.96 -13.63 168.36 -13.2C168.76 -12.78 170.03 -11.32 172.18 -8.83C174.69 -5.94 176.93 -3.36 178.91 -1.07C179.08 -0.9 179.21 -0.76 179.29 -0.66C179.38 -0.56 179.47 -0.46 179.57 -0.36C179.67 -0.26 179.79 -0.2 179.91 -0.17C180.04 -0.14 180.16 -0.11 180.26 -0.06C180.36 -0.02 180.52 0 180.75 0C180.98 0 181.17 0.01 181.33 0.02C181.49 0.04 181.76 0.04 182.16 0.04L183.24 0.04C183.69 0.04 184.12 0.07 184.5 0.13C184.89 0.19 185.15 0.21 185.29 0.21C185.72 0.21 186.04 0.11 186.26 -0.11C186.47 -0.32 186.58 -0.54 186.58 -0.77C186.58 -0.97 186.48 -1.2 186.28 -1.46C186.05 -1.69 185.63 -1.84 185.02 -1.93C184.4 -2.01 183.84 -2.23 183.32 -2.57C183.21 -2.66 183.12 -2.73 183.06 -2.79C182.92 -2.87 178.88 -7.1 170.93 -15.48C170.7 -15.71 170.59 -15.93 170.59 -16.16C170.59 -16.25 170.62 -16.35 170.67 -16.46C170.76 -16.61 173.35 -19.42 178.43 -24.91C178.55 -25.02 178.78 -25.27 179.12 -25.66C179.46 -26.04 179.72 -26.32 179.89 -26.5C180.06 -26.67 180.31 -26.87 180.64 -27.1C180.97 -27.32 181.29 -27.51 181.61 -27.65C181.98 -27.8 182.53 -27.92 183.26 -28.04C183.99 -28.15 184.54 -28.29 184.93 -28.45C185.32 -28.6 185.51 -28.87 185.51 -29.24C185.51 -29.84 185.09 -30.14 184.27 -30.14C184.18 -30.14 183.95 -30.13 183.58 -30.12C183.21 -30.1 182.69 -30.09 182.04 -30.07C181.38 -30.06 180.66 -30.05 179.89 -30.05L179.63 -30.05C178.81 -30.05 178.05 -30.06 177.36 -30.07C176.68 -30.09 176.13 -30.1 175.73 -30.12C175.33 -30.13 175.09 -30.14 175 -30.14C174.35 -30.14 174.02 -29.84 174.02 -29.24C174.02 -28.9 174.17 -28.65 174.47 -28.51C174.77 -28.37 175.1 -28.3 175.45 -28.3C175.81 -28.3 176.14 -28.2 176.44 -28.02C176.74 -27.83 176.89 -27.52 176.89 -27.1C176.89 -26.75 176.78 -26.44 176.55 -26.15C176.49 -26.04 176.02 -25.48 175.13 -24.48C174.25 -23.48 173.08 -22.17 171.64 -20.56C170.2 -18.94 169.17 -17.81 168.57 -17.15C168.03 -16.55 167.65 -16.25 167.42 -16.25C167.04 -16.25 166.86 -16.49 166.86 -16.98L166.86 -26.5C166.86 -27.24 167.07 -27.72 167.5 -27.95C167.73 -28.07 168.15 -28.12 168.77 -28.12C169.38 -28.12 169.89 -28.18 170.29 -28.3C170.69 -28.41 170.89 -28.67 170.89 -29.07C170.89 -29.32 170.79 -29.58 170.59 -29.84C170.39 -30.1 170.06 -30.22 169.6 -30.22C169.52 -30.22 169.27 -30.2 168.87 -30.16C168.47 -30.12 167.91 -30.08 167.18 -30.05C166.45 -30.02 165.66 -30.01 164.8 -30.01L164.76 -30.01C163.9 -30.01 163.11 -30.02 162.38 -30.05C161.65 -30.08 161.08 -30.12 160.66 -30.16C160.25 -30.2 160 -30.22 159.91 -30.22C159.49 -30.22 159.16 -30.11 158.95 -29.88C158.73 -29.65 158.63 -29.41 158.63 -29.15C158.63 -28.5 159.04 -28.14 159.87 -28.08C159.99 -28.08 160.2 -28.07 160.51 -28.04C160.83 -28.01 161.02 -27.99 161.09 -27.97C161.16 -27.96 161.31 -27.94 161.54 -27.91C161.77 -27.88 161.91 -27.85 161.97 -27.82C162.03 -27.8 162.14 -27.75 162.29 -27.7C162.45 -27.64 162.54 -27.57 162.57 -27.5C162.6 -27.43 162.66 -27.35 162.74 -27.25C162.83 -27.15 162.88 -27.03 162.89 -26.9C162.91 -26.77 162.93 -26.62 162.96 -26.45C162.99 -26.28 163 -26.09 163 -25.89L163 -4.07C163 -3.24 162.86 -2.69 162.57 -2.42C162.29 -2.15 161.77 -1.99 161.03 -1.93C160.94 -1.93 160.79 -1.92 160.56 -1.91C160.33 -1.89 160.16 -1.88 160.06 -1.86C159.96 -1.85 159.83 -1.83 159.66 -1.8C159.49 -1.77 159.36 -1.74 159.27 -1.69C159.18 -1.65 159.09 -1.59 158.99 -1.5C158.89 -1.41 158.82 -1.31 158.78 -1.18C158.73 -1.05 158.71 -0.9 158.71 -0.73C158.71 -0.07 158.97 0.26 159.49 0.26C159.51 0.26 159.63 0.25 159.83 0.24C160.03 0.22 160.3 0.2 160.64 0.17C160.99 0.14 161.37 0.11 161.8 0.09C162.23 0.06 162.72 0.04 163.28 0.02C163.84 0.01 164.39 0 164.93 0C165.47 0 166.03 0.01 166.6 0.02C167.17 0.04 167.67 0.06 168.1 0.09C168.53 0.11 168.92 0.14 169.26 0.17C169.6 0.2 169.87 0.22 170.07 0.24C170.27 0.25 170.39 0.26 170.42 0.26Z"/>
			</g>
		</g>
	</g>
</svg>