<svg xmlns="http://www.w3.org/2000/svg"
     version="1.1"
     xmlns:xlink="http://www.w3.org/1999/xlink"
     xmlns:svgjs="http://svgjs.com/svgjs"
     width="100"
     height="100"
     overflow="visible">
	<g class="window-logo"
	   opacity="1">
		<defs id="SvgjsDefs1002"/>
		<g id="SvgjsG1008"
		   transform="scale(1.2311688311688311)"
		   opacity="1">
			<g id="SvgjsG1009"
			   class="nRg-NNccH"
			   transform="translate(-0.5489440487034539, -0.7289070203271064) scale(0.7853312462251827)"
			   light-content="false"
			   non-strokable="false"
			   fill="#ffffff">
				<path d="M47 1.732l37.301 21.536a6 6 0 0 1 3 5.196v43.072a6 6 0 0 1-3 5.196L47 98.268a6 6 0 0 1-6 0L3.699 76.732a6 6 0 0 1-3-5.196V28.464a6 6 0 0 1 3-5.196L41 1.732a6 6 0 0 1 6 0z"
				      fill="#184081"/>
			</g>
			<g id="SvgjsG1010"
			   class="igDxAFNsn5"
			   transform="translate(10.203534589751214, 13.10209021361179) scale(0.466703155356171)"
			   light-content="true"
			   non-strokable="false"
			   fill="#404040">
				<path d="M47.227 71.365V32.013a7.497 7.497 0 0 0-7.496-7.496H20.992v41.227c25.347 0 26.235 5.621 26.235 5.621m33.731-5.621c-.028 0 0-41.227 0-41.227h-18.74a7.494 7.494 0 0 0-7.496 7.496v39.353c0-.001 1.299-5.622 26.236-5.622"
						fill="#ffffff"/>
				<path d="M88.504 30.139v39.353c-35.195 0-33.965 11.243-33.965 11.243h-7.144s1.329-11.176-33.899-11.24V30.139c-4.141 0-7.496 5.23-7.496 9.37v29.983a7.495 7.495 0 0 0 7.496 7.496c20.079 0 27.494 4.041 30.018 6.189a5.544 5.544 0 0 0 3.598 1.307h7.635a5.5 5.5 0 0 0 3.451-1.201c9.297-7.462 30.307-6.295 30.307-6.295a7.497 7.497 0 0 0 7.496-7.496V39.509c-.001-4.14-3.357-9.37-7.497-9.37"
				fill="#ffffff"/>
			</g>
		</g>
	</g>
</svg>